# Blender v2.79 (sub 0) OBJ File: ''
# www.blender.org
v -1.000000 0.000000 -0.500000
v -1.000000 0.000000 0.500000
v -0.995185 0.098017 -0.500000
v -0.995185 0.098017 0.500000
v -0.980785 0.195090 -0.500000
v -0.980785 0.195090 0.500000
v -0.956940 0.290285 -0.500000
v -0.956940 0.290285 0.500000
v -0.923880 0.382683 -0.500000
v -0.923880 0.382683 0.500000
v -0.881921 0.471397 -0.500000
v -0.881921 0.471397 0.500000
v -0.831470 0.555570 -0.500000
v -0.831470 0.555570 0.500000
v -0.773010 0.634393 -0.500000
v -0.773010 0.634393 0.500000
v -0.707107 0.707107 -0.500000
v -0.707107 0.707107 0.500000
v -0.634393 0.773010 -0.500000
v -0.634393 0.773010 0.500000
v -0.555570 0.831470 -0.500000
v -0.555570 0.831470 0.500000
v -0.471397 0.881921 -0.500000
v -0.471397 0.881921 0.500000
v -0.382683 0.923880 -0.500000
v -0.382683 0.923880 0.500000
v -0.290285 0.956940 -0.500000
v -0.290285 0.956940 0.500000
v -0.195090 0.980785 -0.500000
v -0.195090 0.980785 0.500000
v -0.098017 0.995185 -0.500000
v -0.098017 0.995185 0.500000
v 0.000000 1.000000 -0.500000
v 0.000000 1.000000 0.500000
v 0.098017 0.995185 -0.500000
v 0.098017 0.995185 0.500000
v 0.195091 0.980785 -0.500000
v 0.195091 0.980785 0.500000
v 0.290285 0.956940 -0.500000
v 0.290285 0.956940 0.500000
v 0.382684 0.923879 -0.500000
v 0.382684 0.923879 0.500000
v 0.471397 0.881921 -0.500000
v 0.471397 0.881921 0.500000
v 0.555571 0.831469 -0.500000
v 0.555571 0.831469 0.500000
v 0.634394 0.773010 -0.500000
v 0.634394 0.773010 0.500000
v 0.707107 0.707106 -0.500000
v 0.707107 0.707106 0.500000
v 0.773011 0.634393 -0.500000
v 0.773011 0.634393 0.500000
v 0.831470 0.555570 -0.500000
v 0.831470 0.555570 0.500000
v 0.881922 0.471396 -0.500000
v 0.881922 0.471396 0.500000
v 0.923880 0.382683 -0.500000
v 0.923880 0.382683 0.500000
v 0.956941 0.290284 -0.500000
v 0.956941 0.290284 0.500000
v 0.980785 0.195090 -0.500000
v 0.980785 0.195090 0.500000
v 0.995185 0.098016 -0.500000
v 0.995185 0.098016 0.500000
v 1.000000 -0.000001 -0.500000
v 1.000000 -0.000001 0.500000
v 0.995185 -0.098018 -0.500000
v 0.995185 -0.098018 0.500000
v 0.980785 -0.195091 -0.500000
v 0.980785 -0.195091 0.500000
v 0.956940 -0.290286 -0.500000
v 0.956940 -0.290286 0.500000
v 0.923879 -0.382684 -0.500000
v 0.923879 -0.382684 0.500000
v 0.881921 -0.471398 -0.500000
v 0.881921 -0.471398 0.500000
v 0.831469 -0.555571 -0.500000
v 0.831469 -0.555571 0.500000
v 0.773010 -0.634394 -0.500000
v 0.773010 -0.634394 0.500000
v 0.707106 -0.707108 -0.500000
v 0.707106 -0.707108 0.500000
v 0.634393 -0.773011 -0.500000
v 0.634393 -0.773011 0.500000
v 0.555570 -0.831470 -0.500000
v 0.555570 -0.831470 0.500000
v 0.471396 -0.881922 -0.500000
v 0.471396 -0.881922 0.500000
v 0.382683 -0.923880 -0.500000
v 0.382683 -0.923880 0.500000
v 0.290285 -0.956940 -0.500000
v 0.290285 -0.956940 0.500000
v 0.195090 -0.980785 -0.500000
v 0.195090 -0.980785 0.500000
v 0.098017 -0.995185 -0.500000
v 0.098017 -0.995185 0.500000
v 0.000000 -1.000000 -0.500000
v 0.000000 -1.000000 0.500000
v -0.098016 -0.995185 -0.500000
v -0.098016 -0.995185 0.500000
v -0.195089 -0.980785 -0.500000
v -0.195089 -0.980785 0.500000
v -0.290284 -0.956941 -0.500000
v -0.290284 -0.956941 0.500000
v -0.382682 -0.923880 -0.500000
v -0.382682 -0.923880 0.500000
v -0.471395 -0.881922 -0.500000
v -0.471395 -0.881922 0.500000
v -0.555569 -0.831471 -0.500000
v -0.555569 -0.831471 0.500000
v -0.634392 -0.773012 -0.500000
v -0.634392 -0.773012 0.500000
v -0.707105 -0.707108 -0.500000
v -0.707105 -0.707108 0.500000
v -0.773009 -0.634395 -0.500000
v -0.773009 -0.634395 0.500000
v -0.831468 -0.555572 -0.500000
v -0.831468 -0.555572 0.500000
v -0.881920 -0.471399 -0.500000
v -0.881920 -0.471399 0.500000
v -0.923878 -0.382686 -0.500000
v -0.923878 -0.382686 0.500000
v -0.956939 -0.290288 -0.500000
v -0.956939 -0.290288 0.500000
v -0.980785 -0.195093 -0.500000
v -0.980785 -0.195093 0.500000
v -0.995184 -0.098021 -0.500000
v -0.995184 -0.098021 0.500000
v -1.000000 0.000000 -0.500000
v -0.995185 0.098017 -0.500000
v -0.995185 0.098017 0.500000
v -1.000000 0.000000 0.500000
v -0.980785 0.195090 -0.500000
v -0.980785 0.195090 0.500000
v -0.956940 0.290285 -0.500000
v -0.956940 0.290285 0.500000
v -0.923880 0.382683 -0.500000
v -0.923880 0.382683 0.500000
v -0.881921 0.471397 -0.500000
v -0.881921 0.471397 0.500000
v -0.831470 0.555570 -0.500000
v -0.831470 0.555570 0.500000
v -0.773010 0.634393 -0.500000
v -0.773010 0.634393 0.500000
v -0.707107 0.707107 -0.500000
v -0.707107 0.707107 0.500000
v -0.634393 0.773010 -0.500000
v -0.634393 0.773010 0.500000
v -0.555570 0.831470 -0.500000
v -0.555570 0.831470 0.500000
v -0.471397 0.881921 -0.500000
v -0.471397 0.881921 0.500000
v -0.382683 0.923880 -0.500000
v -0.382683 0.923880 0.500000
v -0.290285 0.956940 -0.500000
v -0.290285 0.956940 0.500000
v -0.195090 0.980785 -0.500000
v -0.195090 0.980785 0.500000
v -0.098017 0.995185 -0.500000
v -0.098017 0.995185 0.500000
v 0.000000 1.000000 -0.500000
v 0.000000 1.000000 0.500000
v 0.098017 0.995185 -0.500000
v 0.098017 0.995185 0.500000
v 0.195091 0.980785 -0.500000
v 0.195091 0.980785 0.500000
v 0.290285 0.956940 -0.500000
v 0.290285 0.956940 0.500000
v 0.382684 0.923879 -0.500000
v 0.382684 0.923879 0.500000
v 0.471397 0.881921 -0.500000
v 0.471397 0.881921 0.500000
v 0.555571 0.831469 -0.500000
v 0.555571 0.831469 0.500000
v 0.634394 0.773010 -0.500000
v 0.634394 0.773010 0.500000
v 0.707107 0.707106 -0.500000
v 0.707107 0.707106 0.500000
v 0.773011 0.634393 -0.500000
v 0.773011 0.634393 0.500000
v 0.831470 0.555570 -0.500000
v 0.831470 0.555570 0.500000
v 0.881922 0.471396 -0.500000
v 0.881922 0.471396 0.500000
v 0.923880 0.382683 -0.500000
v 0.923880 0.382683 0.500000
v 0.956941 0.290284 -0.500000
v 0.956941 0.290284 0.500000
v 0.980785 0.195090 -0.500000
v 0.980785 0.195090 0.500000
v 0.995185 0.098016 -0.500000
v 0.995185 0.098016 0.500000
v 1.000000 -0.000001 -0.500000
v 1.000000 -0.000001 0.500000
v 0.995185 -0.098018 -0.500000
v 0.995185 -0.098018 0.500000
v 0.980785 -0.195091 -0.500000
v 0.980785 -0.195091 0.500000
v 0.956940 -0.290286 -0.500000
v 0.956940 -0.290286 0.500000
v 0.923879 -0.382684 -0.500000
v 0.923879 -0.382684 0.500000
v 0.881921 -0.471398 -0.500000
v 0.881921 -0.471398 0.500000
v 0.831469 -0.555571 -0.500000
v 0.831469 -0.555571 0.500000
v 0.773010 -0.634394 -0.500000
v 0.773010 -0.634394 0.500000
v 0.707106 -0.707108 -0.500000
v 0.707106 -0.707108 0.500000
v 0.634393 -0.773011 -0.500000
v 0.634393 -0.773011 0.500000
v 0.555570 -0.831470 -0.500000
v 0.555570 -0.831470 0.500000
v 0.471396 -0.881922 -0.500000
v 0.471396 -0.881922 0.500000
v 0.382683 -0.923880 -0.500000
v 0.382683 -0.923880 0.500000
v 0.290285 -0.956940 -0.500000
v 0.290285 -0.956940 0.500000
v 0.195090 -0.980785 -0.500000
v 0.195090 -0.980785 0.500000
v 0.098017 -0.995185 -0.500000
v 0.098017 -0.995185 0.500000
v 0.000000 -1.000000 -0.500000
v 0.000000 -1.000000 0.500000
v -0.098016 -0.995185 -0.500000
v -0.098016 -0.995185 0.500000
v -0.195089 -0.980785 -0.500000
v -0.195089 -0.980785 0.500000
v -0.290284 -0.956941 -0.500000
v -0.290284 -0.956941 0.500000
v -0.382682 -0.923880 -0.500000
v -0.382682 -0.923880 0.500000
v -0.471395 -0.881922 -0.500000
v -0.471395 -0.881922 0.500000
v -0.555569 -0.831471 -0.500000
v -0.555569 -0.831471 0.500000
v -0.634392 -0.773012 -0.500000
v -0.634392 -0.773012 0.500000
v -0.707105 -0.707108 -0.500000
v -0.707105 -0.707108 0.500000
v -0.773009 -0.634395 -0.500000
v -0.773009 -0.634395 0.500000
v -0.831468 -0.555572 -0.500000
v -0.831468 -0.555572 0.500000
v -0.881920 -0.471399 -0.500000
v -0.881920 -0.471399 0.500000
v -0.923878 -0.382686 -0.500000
v -0.923878 -0.382686 0.500000
v -0.956939 -0.290288 -0.500000
v -0.956939 -0.290288 0.500000
v -0.980785 -0.195093 -0.500000
v -0.980785 -0.195093 0.500000
v -0.995184 -0.098021 -0.500000
v -0.995184 -0.098021 0.500000
vn -1.0000 0.0000 0.0000
vn -0.9952 0.0980 0.0000
vn -0.9808 0.1951 0.0000
vn -0.9569 0.2903 0.0000
vn -0.9239 0.3827 0.0000
vn -0.8819 0.4714 0.0000
vn -0.8314 0.5556 0.0000
vn -0.7730 0.6344 0.0000
vn -0.7071 0.7071 0.0000
vn -0.6344 0.7730 0.0000
vn -0.5556 0.8314 0.0000
vn -0.4714 0.8819 0.0000
vn -0.3827 0.9239 0.0000
vn -0.2903 0.9569 0.0000
vn -0.1951 0.9808 0.0000
vn -0.0980 0.9952 0.0000
vn 0.0000 1.0000 0.0000
vn 0.0980 0.9952 0.0000
vn 0.1951 0.9808 0.0000
vn 0.2903 0.9569 0.0000
vn 0.3827 0.9239 0.0000
vn 0.4714 0.8819 0.0000
vn 0.5556 0.8314 0.0000
vn 0.6344 0.7730 0.0000
vn 0.7071 0.7071 0.0000
vn 0.7730 0.6344 0.0000
vn 0.8314 0.5556 0.0000
vn 0.8819 0.4714 0.0000
vn 0.9239 0.3827 0.0000
vn 0.9569 0.2903 0.0000
vn 0.9808 0.1951 0.0000
vn 0.9952 0.0980 0.0000
vn 1.0000 0.0000 0.0000
vn 0.9952 -0.0980 0.0000
vn 0.9808 -0.1951 0.0000
vn 0.9569 -0.2903 0.0000
vn 0.9239 -0.3827 0.0000
vn 0.8819 -0.4714 0.0000
vn 0.8314 -0.5556 0.0000
vn 0.7730 -0.6344 0.0000
vn 0.7071 -0.7071 0.0000
vn 0.6344 -0.7730 0.0000
vn 0.5556 -0.8314 0.0000
vn 0.4714 -0.8819 0.0000
vn 0.3827 -0.9239 0.0000
vn 0.2903 -0.9569 0.0000
vn 0.1951 -0.9808 0.0000
vn 0.0980 -0.9952 0.0000
vn 0.0000 -1.0000 0.0000
vn -0.0980 -0.9952 0.0000
vn -0.1951 -0.9808 0.0000
vn -0.2903 -0.9569 0.0000
vn -0.3827 -0.9239 0.0000
vn -0.4714 -0.8819 0.0000
vn -0.5556 -0.8314 0.0000
vn -0.6344 -0.7730 0.0000
vn -0.7071 -0.7071 0.0000
vn -0.7730 -0.6344 0.0000
vn -0.8314 -0.5556 0.0000
vn -0.8819 -0.4714 0.0000
vn -0.9239 -0.3827 0.0000
vn -0.9569 -0.2903 0.0000
vn -0.9808 -0.1951 0.0000
vn 0.0000 0.0000 1.0000
vn -0.9952 -0.0980 0.0000
vn 0.0000 0.0000 -1.0000
s 1
f 132//1 130//2 129//1
f 131//2 133//3 130//2
f 134//3 135//4 133//3
f 136//4 137//5 135//4
f 138//5 139//6 137//5
f 140//6 141//7 139//6
f 142//7 143//8 141//7
f 144//8 145//9 143//8
f 146//9 147//10 145//9
f 148//10 149//11 147//10
f 150//11 151//12 149//11
f 152//12 153//13 151//12
f 154//13 155//14 153//13
f 156//14 157//15 155//14
f 158//15 159//16 157//15
f 160//16 161//17 159//16
f 162//17 163//18 161//17
f 164//18 165//19 163//18
f 166//19 167//20 165//19
f 168//20 169//21 167//20
f 170//21 171//22 169//21
f 172//22 173//23 171//22
f 174//23 175//24 173//23
f 176//24 177//25 175//24
f 178//25 179//26 177//25
f 180//26 181//27 179//26
f 182//27 183//28 181//27
f 184//28 185//29 183//28
f 186//29 187//30 185//29
f 188//30 189//31 187//30
f 190//31 191//32 189//31
f 192//32 193//33 191//32
f 194//33 195//34 193//33
f 196//34 197//35 195//34
f 198//35 199//36 197//35
f 200//36 201//37 199//36
f 202//37 203//38 201//37
f 204//38 205//39 203//38
f 206//39 207//40 205//39
f 208//40 209//41 207//40
f 210//41 211//42 209//41
f 212//42 213//43 211//42
f 214//43 215//44 213//43
f 216//44 217//45 215//44
f 218//45 219//46 217//45
f 220//46 221//47 219//46
f 222//47 223//48 221//47
f 224//48 225//49 223//48
f 226//49 227//50 225//49
f 228//50 229//51 227//50
f 230//51 231//52 229//51
f 232//52 233//53 231//52
f 234//53 235//54 233//53
f 236//54 237//55 235//54
f 238//55 239//56 237//55
f 240//56 241//57 239//56
f 242//57 243//58 241//57
f 244//58 245//59 243//58
f 246//59 247//60 245//59
f 248//60 249//61 247//60
f 250//61 251//62 249//61
f 252//62 253//63 251//62
f 70//64 38//64 6//64
f 254//63 255//65 253//63
f 128//65 129//1 255//65
f 127//66 31//66 63//66
f 132//1 131//2 130//2
f 131//2 134//3 133//3
f 134//3 136//4 135//4
f 136//4 138//5 137//5
f 138//5 140//6 139//6
f 140//6 142//7 141//7
f 142//7 144//8 143//8
f 144//8 146//9 145//9
f 146//9 148//10 147//10
f 148//10 150//11 149//11
f 150//11 152//12 151//12
f 152//12 154//13 153//13
f 154//13 156//14 155//14
f 156//14 158//15 157//15
f 158//15 160//16 159//16
f 160//16 162//17 161//17
f 162//17 164//18 163//18
f 164//18 166//19 165//19
f 166//19 168//20 167//20
f 168//20 170//21 169//21
f 170//21 172//22 171//22
f 172//22 174//23 173//23
f 174//23 176//24 175//24
f 176//24 178//25 177//25
f 178//25 180//26 179//26
f 180//26 182//27 181//27
f 182//27 184//28 183//28
f 184//28 186//29 185//29
f 186//29 188//30 187//30
f 188//30 190//31 189//31
f 190//31 192//32 191//32
f 192//32 194//33 193//33
f 194//33 196//34 195//34
f 196//34 198//35 197//35
f 198//35 200//36 199//36
f 200//36 202//37 201//37
f 202//37 204//38 203//38
f 204//38 206//39 205//39
f 206//39 208//40 207//40
f 208//40 210//41 209//41
f 210//41 212//42 211//42
f 212//42 214//43 213//43
f 214//43 216//44 215//44
f 216//44 218//45 217//45
f 218//45 220//46 219//46
f 220//46 222//47 221//47
f 222//47 224//48 223//48
f 224//48 226//49 225//49
f 226//49 228//50 227//50
f 228//50 230//51 229//51
f 230//51 232//52 231//52
f 232//52 234//53 233//53
f 234//53 236//54 235//54
f 236//54 238//55 237//55
f 238//55 240//56 239//56
f 240//56 242//57 241//57
f 242//57 244//58 243//58
f 244//58 246//59 245//59
f 246//59 248//60 247//60
f 248//60 250//61 249//61
f 250//61 252//62 251//62
f 252//62 254//63 253//63
f 6//64 4//64 2//64
f 2//64 256//64 6//64
f 256//64 126//64 6//64
f 126//64 124//64 122//64
f 122//64 120//64 118//64
f 118//64 116//64 110//64
f 116//64 114//64 110//64
f 114//64 112//64 110//64
f 110//64 108//64 102//64
f 108//64 106//64 102//64
f 106//64 104//64 102//64
f 102//64 100//64 94//64
f 100//64 98//64 94//64
f 98//64 96//64 94//64
f 94//64 92//64 86//64
f 92//64 90//64 86//64
f 90//64 88//64 86//64
f 86//64 84//64 78//64
f 84//64 82//64 78//64
f 82//64 80//64 78//64
f 78//64 76//64 74//64
f 74//64 72//64 78//64
f 72//64 70//64 78//64
f 70//64 68//64 66//64
f 66//64 64//64 70//64
f 64//64 62//64 70//64
f 62//64 60//64 58//64
f 58//64 56//64 62//64
f 56//64 54//64 62//64
f 54//64 52//64 46//64
f 52//64 50//64 46//64
f 50//64 48//64 46//64
f 46//64 44//64 42//64
f 42//64 40//64 38//64
f 38//64 36//64 34//64
f 34//64 32//64 38//64
f 32//64 30//64 38//64
f 30//64 28//64 26//64
f 26//64 24//64 22//64
f 22//64 20//64 14//64
f 20//64 18//64 14//64
f 18//64 16//64 14//64
f 14//64 12//64 6//64
f 12//64 10//64 6//64
f 10//64 8//64 6//64
f 126//64 122//64 6//64
f 122//64 118//64 6//64
f 46//64 42//64 38//64
f 30//64 26//64 38//64
f 26//64 22//64 38//64
f 118//64 110//64 102//64
f 102//64 94//64 86//64
f 86//64 78//64 102//64
f 78//64 70//64 102//64
f 70//64 62//64 54//64
f 54//64 46//64 70//64
f 46//64 38//64 70//64
f 22//64 14//64 38//64
f 14//64 6//64 38//64
f 6//64 118//64 102//64
f 6//64 102//64 70//64
f 254//63 128//65 255//65
f 128//65 132//1 129//1
f 127//66 1//66 3//66
f 3//66 5//66 127//66
f 5//66 7//66 127//66
f 7//66 9//66 11//66
f 11//66 13//66 15//66
f 15//66 17//66 19//66
f 19//66 21//66 23//66
f 23//66 25//66 31//66
f 25//66 27//66 31//66
f 27//66 29//66 31//66
f 31//66 33//66 39//66
f 33//66 35//66 39//66
f 35//66 37//66 39//66
f 39//66 41//66 47//66
f 41//66 43//66 47//66
f 43//66 45//66 47//66
f 47//66 49//66 55//66
f 49//66 51//66 55//66
f 51//66 53//66 55//66
f 55//66 57//66 59//66
f 59//66 61//66 63//66
f 63//66 65//66 71//66
f 65//66 67//66 71//66
f 67//66 69//66 71//66
f 71//66 73//66 79//66
f 73//66 75//66 79//66
f 75//66 77//66 79//66
f 79//66 81//66 83//66
f 83//66 85//66 87//66
f 87//66 89//66 91//66
f 91//66 93//66 95//66
f 95//66 97//66 99//66
f 99//66 101//66 103//66
f 103//66 105//66 107//66
f 107//66 109//66 111//66
f 111//66 113//66 115//66
f 115//66 117//66 119//66
f 119//66 121//66 127//66
f 121//66 123//66 127//66
f 123//66 125//66 127//66
f 7//66 11//66 127//66
f 11//66 15//66 127//66
f 15//66 19//66 23//66
f 55//66 59//66 63//66
f 79//66 83//66 87//66
f 87//66 91//66 79//66
f 91//66 95//66 79//66
f 95//66 99//66 111//66
f 99//66 103//66 111//66
f 103//66 107//66 111//66
f 111//66 115//66 127//66
f 115//66 119//66 127//66
f 15//66 23//66 31//66
f 31//66 39//66 47//66
f 47//66 55//66 31//66
f 55//66 63//66 31//66
f 63//66 71//66 79//66
f 127//66 15//66 31//66
f 63//66 79//66 95//66
f 95//66 111//66 63//66
f 111//66 127//66 63//66
